<svg width="151" height="42" viewBox="0 0 151 42" fill="none" xmlns="http://www.w3.org/2000/svg">
<path fill-rule="evenodd" clip-rule="evenodd" d="M54.8542 11.8105C52.4922 16.834 49.1226 18.2379 49.1226 21.8222C49.1226 24.8819 51.486 27.389 54.8542 27.389C58.222 27.389 60.5849 24.8819 60.5849 21.8222C60.5849 18.2379 57.2167 16.834 54.8542 11.8105Z" fill="#00BAF2"/>
<path fill-rule="evenodd" clip-rule="evenodd" d="M54.8539 39.8518C51.0803 39.8518 47.3987 38.8005 44.2069 36.8117L43.9987 36.6826V26.8407L44.7977 27.8532C47.2373 30.942 50.903 32.7131 54.8539 32.7131C61.8793 32.7131 67.5946 27.082 67.5946 20.16C67.5946 13.2381 61.8793 7.60652 54.8539 7.60652C48.3083 7.60652 42.861 12.4401 42.1831 18.85L42.1418 19.245H34.8911L34.9242 18.7732C35.6529 8.50952 44.4073 0.46875 54.8539 0.46875C65.8738 0.46875 74.839 9.30215 74.839 20.16C74.839 31.0179 65.8738 39.8518 54.8539 39.8518Z" fill="white"/>
<path fill-rule="evenodd" clip-rule="evenodd" d="M26.5855 20.9406C24.4774 20.9406 22.7615 22.63 22.7615 24.7081C22.7615 26.7848 24.4774 28.4751 26.5855 28.4751H29.5035C27.146 31.0769 23.7224 32.6921 20.0068 32.6921C12.9946 32.6921 7.28926 27.0699 7.28926 20.1605C7.28926 13.2506 12.9946 7.62882 20.0068 7.62882C23.0699 7.62882 26.0282 8.71635 28.3395 10.6921C29.0024 11.2587 29.8504 11.571 30.7274 11.571C31.7844 11.571 32.7879 11.1206 33.4807 10.3351C34.1187 9.60997 34.4325 8.68373 34.3641 7.72756C34.296 6.77005 33.8521 5.89788 33.1171 5.26922C29.4826 2.15988 24.8261 0.447266 20.0068 0.447266C8.97475 0.447266 0 9.2905 0 20.1605C0 31.0304 8.97475 39.8745 20.0068 39.8745C25.7113 39.8745 30.9468 37.4622 34.6307 33.5763V37.4926C34.6307 39.5694 36.3461 41.261 38.4547 41.261C40.5628 41.261 42.2777 39.5694 42.2777 37.4926V20.9406H26.5855Z" fill="white"/>
<path fill-rule="evenodd" clip-rule="evenodd" d="M140.641 19.5529C143.354 19.5529 145.639 21.2937 146.379 23.6832H134.871C135.634 21.3026 137.943 19.5529 140.641 19.5529ZM145.038 29.2938C143.946 30.4532 142.383 31.1882 140.641 31.1882C137.957 31.1882 135.712 29.531 134.917 27.234H150.801C150.918 26.637 150.982 26.0222 150.982 25.3927C150.982 19.9157 146.302 15.4355 140.593 15.4355C134.93 15.4355 130.251 19.9157 130.251 25.3927C130.251 30.8241 134.883 35.2591 140.593 35.2591C144.891 35.2591 148.561 32.8128 150.145 29.2938H145.038Z" fill="white"/>
<path fill-rule="evenodd" clip-rule="evenodd" d="M104.837 16.3486V24.9524C104.837 29.0362 105.922 30.7671 108.661 30.7671C111.354 30.7671 112.58 29.0809 112.58 25.2638V16.3486H117.209V26.5059C117.209 31.5231 113.715 34.9859 108.661 34.9859C106.112 34.9859 103.702 33.965 102.098 32.1875C100.632 30.5464 100.208 29.126 100.208 26.195V16.3486H104.837Z" fill="white"/>
<path fill-rule="evenodd" clip-rule="evenodd" d="M87.9288 30.7668C84.6218 30.7668 82.1192 28.4144 82.1192 25.3073C82.1192 22.2002 84.6703 19.8026 87.8817 19.8026C91.1406 19.8026 93.7385 22.244 93.7385 25.2639C93.7385 28.371 91.1873 30.7668 87.9288 30.7668ZM87.9288 15.54C84.4817 15.54 81.0808 17.2276 79.2851 19.8468C77.9637 21.8445 77.6803 23.1327 77.6803 27.0391C77.6803 27.0391 77.6758 39.5707 77.6758 39.5891C77.6758 40.8491 78.7124 41.8718 79.992 41.8718C81.2717 41.8718 82.3096 40.8491 82.3096 39.5891V32.987C84.1506 34.3632 86.0869 34.9856 88.1651 34.9856C93.6895 34.9856 98.3673 30.5465 98.3673 25.2639C98.3673 19.9362 93.6446 15.54 87.9288 15.54Z" fill="white"/>
<path fill-rule="evenodd" clip-rule="evenodd" d="M129.191 15.6727C128.606 15.6289 128.361 15.6289 128.018 15.6289C122.79 15.6289 119.858 18.4697 119.858 23.5749V34.2738H124.646V24.7737C124.646 21.1367 125.623 20.0688 129.184 19.8472H129.191C130.362 19.8472 131.309 18.9125 131.309 17.7606C131.309 16.6083 130.362 15.6727 129.191 15.6727Z" fill="white"/>
</svg>
