<svg width="28" height="24" viewBox="0 0 28 24" fill="none" xmlns="http://www.w3.org/2000/svg">
<path d="M28 2.83173C26.9518 3.32212 25.8991 3.69231 24.7324 3.81731C25.8991 3.07692 26.8333 1.84615 27.2982 0.490385C26.1315 1.23077 24.9648 1.72115 23.6842 1.97115C22.5176 0.740385 21 0 19.3685 0C16.2148 0 13.6491 2.70673 13.6491 6.02885C13.6491 6.52404 13.6491 7.01442 13.7676 7.38462C8.98242 7.13942 4.78516 4.79808 1.98242 1.10577C1.39909 1.97115 1.16667 3.07692 1.16667 4.18269C1.16667 6.27885 2.21484 8.125 3.73242 9.23077C2.79818 9.10577 1.86849 8.86058 1.16667 8.49039C1.16667 8.49039 1.16667 8.49039 1.16667 8.61539C1.16667 11.5673 3.14909 14.0288 5.71484 14.524C5.25 14.6442 4.78516 14.7692 4.20182 14.7692C3.85091 14.7692 3.5 14.7692 3.14909 14.6442C3.85091 17.1058 5.95182 18.8317 8.51758 18.8317C6.53516 20.4327 4.08333 21.4135 1.39909 21.4135C0.934244 21.4135 0.464844 21.4135 0 21.2933C2.56576 23.0144 5.60091 24 8.75 24C19.3685 24 25.0833 14.7692 25.0833 6.76923C25.0833 6.52404 25.0833 6.27885 25.0833 6.02885C26.25 5.16827 27.1842 4.0625 28 2.83173Z" fill="white"/>
</svg>
